# Blender v2.79 (sub 0) OBJ File: 'Room.blend'
# www.blender.org
mtllib Room.mtl
o Cube
v 2.000000 0.038006 -2.000000
v 2.000000 0.038006 2.000000
v -2.000000 0.038006 2.000000
v -1.999999 0.038006 -2.000001
v 2.000001 2.038006 -1.999999
v 1.999999 2.038006 2.000001
v -2.000001 2.038006 1.999999
v -2.000000 2.038006 -2.000000
v -2.000000 0.038006 0.399999
v -2.000000 0.038006 -0.400001
v -2.000000 1.238006 0.400000
v -2.000000 1.238006 -0.400000
v -4.000000 0.038006 0.399999
v -4.000000 0.038006 -0.400001
v -4.000000 1.238006 0.399999
v -4.000000 1.238006 -0.400001
v 0.400000 0.038006 2.000000
v -0.400000 0.038006 2.000000
v -0.400000 1.238006 2.000000
v 0.400000 1.238006 2.000000
v 0.400000 0.038005 4.000000
v -0.400000 0.038005 4.000000
v -0.400000 1.238005 4.000000
v 0.400000 1.238005 4.000000
v 2.000000 0.038006 -2.000000
v 2.000000 0.038006 2.000000
v -2.000000 0.038006 2.000000
v -1.999999 0.038006 -2.000001
v -2.000000 0.038006 1.200000
v -2.000000 0.038006 0.399999
v -2.000000 0.038006 -0.400001
v -1.999999 0.038006 -1.200001
v 0.400000 0.038006 2.000000
v -0.400000 0.038006 2.000000
vt 0.999937 0.000063
vt 0.000063 0.000063
vt 0.000063 0.400013
vt 0.999937 0.400013
vt 0.999937 0.000063
vt 0.000063 0.000063
vt 0.000063 0.400013
vt 0.999937 0.400013
vt 0.000000 0.000000
vt 0.000000 1.000000
vt 0.200000 1.000000
vt 0.400000 1.000000
vt 0.600000 1.000000
vt 0.800000 1.000000
vt 1.000000 1.000000
vt 1.000000 0.600000
vt 1.000000 0.400000
vt 1.000000 0.000000
vt 1.000000 1.000000
vt 1.000000 0.000000
vt 0.000000 0.000000
vt 0.000000 1.000000
vt 1.000000 1.000000
vt 1.000000 0.000000
vt 0.000000 0.000000
vt 0.000000 1.000000
vt 1.000000 1.000000
vt 1.000000 0.000000
vt 0.000000 0.000000
vt 0.000000 1.000000
vt 0.000000 1.000000
vt 1.000000 1.000000
vt 1.000000 0.000000
vt 0.000000 0.000000
vt 0.000000 1.000000
vt 1.000000 1.000000
vt 1.000000 0.000000
vt 0.000000 0.000000
vt 1.000000 1.000000
vt 1.000000 0.000000
vt 0.000000 0.000000
vt 0.000000 1.000000
vt 1.000000 0.000000
vt 1.000000 1.000000
vt 0.000000 1.000000
vt 0.000000 0.000000
vt 0.000000 0.000000
vt 1.000000 0.000000
vt 1.000000 1.000000
vt 0.000000 1.000000
vt 0.000000 0.000000
vt 1.000000 0.000000
vt 1.000000 1.000000
vt 0.500000 0.999929
vt 0.000071 0.999929
vt 0.200042 0.599986
vt 0.500000 0.599986
vt 0.000071 0.000071
vt 0.200042 0.400014
vt 0.500000 0.000071
vt 0.500000 0.400014
vt 0.400000 0.600000
vt 0.000000 1.000000
vt 1.000000 1.000000
vt 1.000000 0.600000
vt 0.400000 0.400000
vt 1.000000 0.400000
vn -0.0000 1.0000 0.0000
vn 0.0000 -1.0000 -0.0000
vn -1.0000 0.0000 -0.0000
vn 1.0000 0.0000 0.0000
vn 0.0000 0.0000 -1.0000
vn -0.0000 -0.0000 1.0000
usemtl Material
s off
f 10/1/1 14/2/1 13/3/1 9/4/1
f 18/5/1 22/6/1 21/7/1 17/8/1
f 25/9/1 28/10/1 32/11/1 31/12/1 30/13/1 29/14/1 27/15/1 34/16/1 33/17/1 26/18/1
usemtl Material.001
f 20/19/2 24/20/2 23/21/2 19/22/2
f 17/23/3 21/24/3 24/25/3 20/26/3
f 19/27/4 23/28/4 22/29/4 18/30/4
f 12/31/2 11/32/2 15/33/2 16/34/2
f 11/35/5 9/36/5 13/37/5 15/38/5
f 14/39/6 10/40/6 12/41/6 16/42/6
f 4/43/6 1/44/6 5/45/6 8/46/6
f 2/47/3 6/48/3 5/49/3 1/50/3
f 5/45/2 6/51/2 7/52/2 8/53/2
f 3/54/5 7/55/5 19/56/5 18/57/5
f 6/58/5 20/59/5 19/56/5 7/55/5
f 2/60/5 17/61/5 20/59/5 6/58/5
f 11/62/4 7/63/4 3/64/4 9/65/4
f 12/66/4 8/46/4 7/63/4 11/62/4
f 12/66/4 10/67/4 4/43/4 8/46/4
